# xmcd
#
# Track frame offsets:
# 150
# 17000
# 31046
# 46910
# 60413
# 74377
# 86511
# 102238
# 113733
# 128841
# 141923
# 158729
# 173612
# 186394
#
# Disc length: 2733 seconds
#
#
# Revision: 3
# Processed by: cddbd v1.5.2PL0 Copyright (c) Steve Scherf et al.
# Submitted via: FreeRIP 2.951 
#
DISCID=b00aab0e
DTITLE=Di Paulo and Paulinho - O Coração Chora
DYEAR=2005
DGENRE=Country
TTITLE0=O Que é Que Eu Sou Sem Você
TTITLE1=Águas De Minha Saudade
TTITLE2=O Coração Chora
TTITLE3=Passarinho Do Sertão
TTITLE4=Só Você É O Remédio
TTITLE5=Não Brinque Com A Paixão
TTITLE6=Olha O Que Fez Comigo
TTITLE7=Cheiro De Flor
TTITLE8=Não Põe A Mão No Meu Chapéu
TTITLE9=Bate Nesse Peito Meu
TTITLE10=Nada Mudou
TTITLE11=A Resposta Está No Ar
TTITLE12=Estou Amando Você
TTITLE13=Caminhão Na Estrada, Coração Na Cama
EXTD=Sertenejo
EXTT0=
EXTT1=
EXTT2=
EXTT3=
EXTT4=
EXTT5=
EXTT6=
EXTT7=
EXTT8=
EXTT9=
EXTT10=
EXTT11=
EXTT12=
EXTT13=
PLAYORDER=
